<svg xmlns="http://www.w3.org/2000/svg" xmlns:xlink="http://www.w3.org/1999/xlink" id="Layer_1" x="0" y="0" version="1.1" viewBox="0 0 1600 800" xml:space="preserve" style="enable-background:new 0 0 1600 800"><style type="text/css">.st0{opacity:8.000000e-002}.st1{stroke:#000;stroke-miterlimit:10}</style><g id="XMLID_30_" class="st0"><path id="XMLID_47_" d="M196.2,425.1C417.3,273,502.6,131.6,515.7,0H0v475.8C56.8,487.7,121.7,476.4,196.2,425.1z" class="st1"/><path id="XMLID_48_" d="M1171.3,0c2.9,14.7,8.4,29,16.7,42.5l312.5,508.2c22.3,36.3,59.9,57.8,99.5,61.3V0H1171.3z" class="st1"/><circle id="XMLID_49_" cx="1035" cy="167" r="17" class="st1"/><circle id="XMLID_50_" cx="547.3" cy="641" r="17" class="st1"/><circle id="XMLID_51_" cx="782" cy="249.5" r="31" class="st1"/><circle id="XMLID_52_" cx="1157" cy="658" r="31" class="st1"/><circle id="XMLID_53_" cx="449" cy="378.5" r="31" class="st1"/><circle id="XMLID_54_" cx="1219.5" cy="181" r="9" class="st1"/><circle id="XMLID_55_" cx="857.1" cy="673.8" r="9" class="st1"/><circle id="XMLID_56_" cx="1228.5" cy="520.1" r="9" class="st1"/><circle id="XMLID_57_" cx="1254.9" cy="230.1" r="15.9" class="st1"/><circle id="XMLID_58_" cx="1431.6" cy="658" r="15.9" class="st1"/><circle id="XMLID_59_" cx="933.9" cy="440.1" r="15.9" class="st1"/><circle id="XMLID_60_" cx="150" cy="673.8" r="15.9" class="st1"/></g></svg>