<svg xmlns="http://www.w3.org/2000/svg" xmlns:svg="http://www.w3.org/2000/svg" id="svg3300" width="205.13" height="27.112" version="1.1" viewBox="0 0 205.13 27.112"><metadata id="metadata3304"/><defs id="defs3270"><style id="style3268">.cls-1{fill:#1d1d1b}</style></defs><title id="title3272">Risorsa 7</title><g id="Livello_2" data-name="Livello 2" style="fill:#1a1a1a"><g id="Livello_1-2" data-name="Livello 1" style="fill:#1a1a1a"><polygon id="polygon3274" points="2.92 12.1 2.92 .59 0 .59 0 26.53 2.92 26.53 2.92 15.02 8.41 15.02 16.77 26.53 20.35 26.53 10.93 13.56 20.35 .59 16.77 .59 8.41 12.1" class="cls-1" style="fill:#1a1a1a"/><rect id="rect3276" width="18.38" height="2.92" x="31.57" y="23.61" class="cls-1" style="fill:#1a1a1a"/><rect id="rect3278" width="18.38" height="2.92" x="31.57" y=".59" class="cls-1" style="fill:#1a1a1a"/><rect id="rect3280" width="18.38" height="2.92" x="31.57" y="12.02" class="cls-1" style="fill:#1a1a1a"/><polygon id="polygon3282" points="63.1 .59 59.52 .59 70.16 15.82 70.16 26.53 73.08 26.53 73.08 15.82 83.68 .59 80.13 .59 71.62 12.83" class="cls-1" style="fill:#1a1a1a"/><polygon id="polygon3284" points="113.49 26.53 113.49 23.61 97.67 23.61 97.67 .59 94.75 .59 94.75 26.53" class="cls-1" style="fill:#1a1a1a"/><rect id="rect3286" width="18.38" height="2.92" x="124.82" y="23.61" class="cls-1" style="fill:#1a1a1a"/><rect id="rect3288" width="18.38" height="2.92" x="124.82" y=".59" class="cls-1" style="fill:#1a1a1a"/><rect id="rect3290" width="18.38" height="2.92" x="124.82" y="12.1" class="cls-1" style="fill:#1a1a1a"/><path id="path3292" d="m 153.84,19.53 c 0.06,4.54 4.52,7.66 10.36,7.58 6,-0.07 10.26,-3.24 10.21,-7.84 -0.13,-9.79 -17,-5.7 -17.07,-11.88 0,-2.55 2.46,-4.41 6.55,-4.47 3.84,0 6.68,1.75 6.71,4.3 h 2.92 c -0.05,-4.17 -4,-7.26 -9.66,-7.19 -5.66,0.07 -9.5,3.08 -9.45,7.43 0.13,9.61 17,4.83 17.07,11.88 0.05,3.58 -4.57,4.84 -7.31,4.88 -4.24,0 -7.37,-1.81 -7.41,-4.69 z" class="cls-1" style="fill:#1a1a1a"/><path id="path3294" d="m 189.93,13.26 c 0,0 1,-2.81 0.95,-2.81 -1.6,-0.66 -2.66,-1.61 -2.66,-3.14 0,-2.56 2.52,-4.39 6.61,-4.39 3.84,0 6.65,1.83 6.65,4.39 h 2.92 C 204.4,3.14 200.46,0 194.83,0 c -5.63,0 -9.54,3 -9.54,7.31 0,3.32 2,5 4.64,6" class="cls-1" style="fill:#1a1a1a"/><path id="path3296" d="m 198.56,15.53 c 2.12,0.73 3.65,1.75 3.65,3.87 0,3.58 -4.64,4.79 -7.38,4.79 -4.24,0 -7.34,-1.9 -7.34,-4.79 h -2.93 c 0,4.53 4.42,7.71 10.27,7.71 6,0 10.3,-3.1 10.3,-7.71 0,-3.8 -2.52,-5.52 -5.62,-6.57 z" class="cls-1" style="fill:#1a1a1a"/></g></g></svg>