<svg xmlns="http://www.w3.org/2000/svg" xmlns:xlink="http://www.w3.org/1999/xlink" id="Layer_1" x="0" y="0" version="1.1" viewBox="0 0 158.3 105.8" xml:space="preserve" style="enable-background:new 0 0 158.3 105.8"><style type="text/css">.st0{fill:#075567}.st1{fill:#059884}.st2{fill:url(#SVGID_1_)}.st3{opacity:.2;fill:url(#SVGID_2_);enable-background:new}.st4{fill:#0c7290}.st5{fill:url(#SVGID_3_)}.st6,.st7,.st8{opacity:.2;fill:url(#SVGID_4_);enable-background:new}.st7,.st8{opacity:.4;fill:#205027}.st8{fill:url(#SVGID_5_)}.st9{fill:url(#SVGID_6_)}.st10,.st11{opacity:.2;fill:url(#SVGID_7_);enable-background:new}.st11{opacity:.4;fill:url(#SVGID_8_)}.st12{fill:url(#SVGID_9_)}.st13{fill:url(#SVGID_10_)}.st14{opacity:.2}.st15{fill:url(#SVGID_11_)}.st16{fill:url(#SVGID_12_)}.st17{opacity:.4;fill:url(#SVGID_13_);enable-background:new}.st18{fill:url(#SVGID_14_)}.st19{opacity:.2;fill:url(#SVGID_15_);enable-background:new}.st20{fill:url(#SVGID_16_)}.st21{opacity:.2;fill:url(#SVGID_17_);enable-background:new}.st22{fill:url(#SVGID_18_)}.st23{opacity:.2;fill:url(#SVGID_19_);enable-background:new}.st24{fill:url(#SVGID_20_)}.st25{fill:url(#SVGID_21_)}.st26{opacity:.2;fill:url(#SVGID_22_);enable-background:new}.st27{fill:url(#SVGID_23_)}.st28,.st29{opacity:.2;fill:url(#SVGID_24_);enable-background:new}.st29{opacity:.4;fill:url(#SVGID_25_)}.st30{fill:url(#SVGID_26_)}.st31{opacity:.2;fill:url(#SVGID_27_);enable-background:new}.st32{fill:url(#SVGID_28_)}.st33,.st34{opacity:.2;fill:url(#SVGID_29_);enable-background:new}.st34{opacity:.4;fill:url(#SVGID_30_)}.st35{fill:url(#SVGID_31_)}.st36,.st37{opacity:.4;fill:url(#SVGID_32_);enable-background:new}.st37{opacity:.2;fill:url(#SVGID_33_)}.st38{fill:#4bb649}.st39{fill:url(#SVGID_34_)}.st40{fill:url(#SVGID_35_)}.st40,.st41,.st42{opacity:.2;enable-background:new}.st41{fill:url(#SVGID_36_)}.st42{fill:url(#SVGID_37_)}</style><g><g><path d="M33.4,85.7c-0.6,1.1-1.5,1.9-2.7,2.6c-1.2,0.6-2.7,1-4.5,1c-1.7,0-3.3-0.3-4.7-0.9s-2.5-1.5-3.3-2.6 s-1.3-2.4-1.4-3.8h4.4c0.1,1.1,0.6,2.1,1.4,2.9c0.8,0.8,1.9,1.2,3.3,1.2c1.3,0,2.2-0.3,2.9-1s1-1.5,1-2.6c0-0.9-0.3-1.7-0.8-2.3 c-0.5-0.6-1.1-1.1-1.9-1.4c-0.7-0.3-1.8-0.7-3.1-1.2c-1.6-0.5-2.9-1-3.9-1.5s-1.8-1.2-2.5-2.2s-1-2.2-1-3.8c0-1.4,0.3-2.6,1-3.6 s1.6-1.8,2.9-2.4c1.3-0.6,2.7-0.8,4.3-0.8c2.6,0,4.7,0.6,6.2,1.9c1.5,1.3,2.4,2.9,2.6,4.9h-4.4c-0.2-1-0.6-1.8-1.4-2.5 c-0.7-0.7-1.7-1-3-1c-1.2,0-2.1,0.3-2.8,0.9s-1,1.4-1,2.5c0,0.9,0.2,1.6,0.7,2.1c0.5,0.6,1.1,1,1.8,1.3s1.7,0.7,3,1.1 c1.6,0.5,2.9,1,4,1.5c1,0.5,1.9,1.3,2.6,2.3c0.7,1,1.1,2.3,1.1,3.9C34.3,83.4,34,84.6,33.4,85.7z" class="st0"/><path d="M54.5,70.1c1.4,0.8,2.4,2,3.2,3.5c0.8,1.5,1.2,3.3,1.2,5.4s-0.4,3.9-1.2,5.5c-0.8,1.5-1.8,2.7-3.2,3.5 c-1.4,0.8-2.9,1.2-4.6,1.2c-1.8,0-3.3-0.4-4.6-1.3c-1.3-0.9-2.2-2.1-2.7-3.5v14.1h-4.1V69.1h4.1v4.6c0.5-1.5,1.4-2.6,2.7-3.5 c1.3-0.9,2.8-1.3,4.6-1.3C51.6,68.8,53.1,69.2,54.5,70.1z M45.5,73.2c-0.9,0.5-1.6,1.3-2.2,2.3c-0.5,1-0.8,2.1-0.8,3.4 s0.3,2.5,0.8,3.5s1.3,1.8,2.2,2.3c0.9,0.5,1.9,0.8,3.1,0.8c1.8,0,3.3-0.6,4.4-1.8c1.1-1.2,1.7-2.8,1.7-4.8s-0.6-3.6-1.7-4.8 c-1.1-1.2-2.6-1.8-4.4-1.8C47.4,72.4,46.4,72.7,45.5,73.2z" class="st0"/><path d="M69.8,69.9c1.3-0.8,2.7-1.1,4.3-1.1v4.5h-1.2c-1.8,0-3.3,0.4-4.4,1.3s-1.6,2.3-1.6,4.4v10.1h-4.1v-20h4.1V73 C67.6,71.7,68.5,70.6,69.8,69.9z" class="st0"/><path d="M95.5,69.1V89h-4.2v-4.3c-0.5,1.5-1.4,2.6-2.6,3.4c-1.3,0.8-2.7,1.2-4.4,1.2c-2.3,0-4.2-0.7-5.6-2.2 s-2.1-3.6-2.1-6.4V69.1h4.1v11.1c0,1.8,0.5,3.2,1.4,4.2s2.2,1.5,3.8,1.5c1.6,0,2.9-0.5,3.9-1.6s1.5-2.6,1.5-4.6V69.1H95.5z" class="st0"/><path d="M115.7,70.9c1.7,1.4,2.7,3.2,3.1,5.5h-4.4c-0.2-1.3-0.8-2.2-1.8-2.9c-0.9-0.7-2.1-1.1-3.5-1.1 c-1.6,0-2.9,0.6-4,1.7c-1.1,1.1-1.6,2.8-1.6,4.9s0.5,3.8,1.6,4.9c1.1,1.1,2.4,1.7,4,1.7c1.4,0,2.6-0.4,3.5-1.1s1.5-1.7,1.8-3h4.4 c-0.4,2.3-1.5,4.2-3.1,5.6c-1.7,1.4-3.8,2.1-6.4,2.1c-1.9,0-3.6-0.4-5.1-1.2c-1.5-0.8-2.6-2-3.5-3.5c-0.8-1.5-1.3-3.4-1.3-5.5 s0.4-3.9,1.3-5.4c0.8-1.5,2-2.7,3.5-3.5c1.5-0.8,3.2-1.2,5.1-1.2C111.9,68.8,114,69.5,115.7,70.9z" class="st0"/><path d="M141.2,79.8h-15.3c0.1,2,0.6,3.6,1.7,4.5c1.1,1,2.4,1.5,3.9,1.5c1.4,0,2.5-0.3,3.5-1s1.5-1.6,1.8-2.8h4.4 c-0.3,1.4-0.8,2.6-1.7,3.7c-0.8,1.1-1.9,1.9-3.3,2.5c-1.3,0.6-2.9,0.9-4.5,0.9c-1.9,0-3.6-0.4-5.1-1.2c-1.5-0.8-2.6-2-3.5-3.5 c-0.8-1.5-1.3-3.4-1.3-5.5s0.4-3.9,1.3-5.4c0.8-1.5,2-2.7,3.5-3.5s3.2-1.2,5.1-1.2c1.9,0,3.7,0.4,5.1,1.2c1.5,0.8,2.6,1.9,3.4,3.3 c0.8,1.4,1.2,3,1.2,4.7C141.3,78.7,141.3,79.3,141.2,79.8z M136.5,74.7c-0.5-0.9-1.2-1.5-2-1.9c-0.9-0.4-1.8-0.6-2.8-0.6 c-1.6,0-3,0.5-4,1.5c-1.1,1-1.7,2.4-1.8,4.4h11.3C137.2,76.7,137,75.6,136.5,74.7z" class="st0"/></g></g><g><path d="M59.5,54.6c0.2,0,0.3,0,0.5,0C59.8,54.7,59.7,54.6,59.5,54.6z" class="st1"/><linearGradient id="SVGID_1_" x1="59.517" x2="83.068" y1="50.126" y2="94.582" gradientTransform="matrix(1 0 0 -1 0 105.1953)" gradientUnits="userSpaceOnUse"><stop offset="0" style="stop-color:#04715f"/><stop offset=".875" style="stop-color:#059884"/></linearGradient><path d="M59.5,54.6c0.2,0,0.3,0,0.5,0C59.8,54.7,59.7,54.6,59.5,54.6z" class="st2"/><linearGradient id="SVGID_2_" x1="59.517" x2="83.068" y1="50.126" y2="94.582" gradientTransform="matrix(1 0 0 -1 0 105.1953)" gradientUnits="userSpaceOnUse"><stop offset="0" style="stop-color:#04715f"/><stop offset=".875" style="stop-color:#059884"/></linearGradient><path d="M59.5,54.6c0.2,0,0.3,0,0.5,0C59.8,54.7,59.7,54.6,59.5,54.6z" class="st3"/><path d="M59.5,54.6L59.5,54.6L59.5,54.6z" class="st4"/><linearGradient id="SVGID_3_" x1="59.541" x2="59.541" y1="50.642" y2="50.642" gradientTransform="matrix(1 0 0 -1 0 105.1953)" gradientUnits="userSpaceOnUse"><stop offset="0" style="stop-color:#075567"/><stop offset=".875" style="stop-color:#0c7290"/></linearGradient><path d="M59.5,54.6L59.5,54.6L59.5,54.6z" class="st5"/><linearGradient id="SVGID_4_" x1="59.541" x2="59.541" y1="50.642" y2="50.642" gradientTransform="matrix(1 0 0 -1 0 105.1953)" gradientUnits="userSpaceOnUse"><stop offset="0" style="stop-color:#075567"/><stop offset=".875" style="stop-color:#0c7290"/></linearGradient><path d="M59.5,54.6L59.5,54.6L59.5,54.6z" class="st6"/><path d="M59.5,54.6L59.5,54.6L59.5,54.6z" class="st7"/><linearGradient id="SVGID_5_" x1="59.541" x2="59.541" y1="50.642" y2="50.642" gradientTransform="matrix(1 0 0 -1 0 105.1953)" gradientUnits="userSpaceOnUse"><stop offset="0" style="stop-color:#023d4b"/><stop offset=".875" style="stop-color:#205027"/></linearGradient><path d="M59.5,54.6L59.5,54.6L59.5,54.6z" class="st8"/><path d="M60.4,54.7c-0.2,0-0.3,0-0.5,0C60.1,54.7,60.3,54.7,60.4,54.7z" class="st4"/><linearGradient id="SVGID_6_" x1="57.912" x2="85.656" y1="46.24" y2="98.614" gradientTransform="matrix(1 0 0 -1 0 105.1953)" gradientUnits="userSpaceOnUse"><stop offset="0" style="stop-color:#075567"/><stop offset=".875" style="stop-color:#0c7290"/></linearGradient><path d="M60.4,54.7c-0.2,0-0.3,0-0.5,0C60.1,54.7,60.3,54.7,60.4,54.7z" class="st9"/><linearGradient id="SVGID_7_" x1="57.912" x2="85.656" y1="46.24" y2="98.614" gradientTransform="matrix(1 0 0 -1 0 105.1953)" gradientUnits="userSpaceOnUse"><stop offset="0" style="stop-color:#075567"/><stop offset=".875" style="stop-color:#0c7290"/></linearGradient><path d="M60.4,54.7c-0.2,0-0.3,0-0.5,0C60.1,54.7,60.3,54.7,60.4,54.7z" class="st10"/><path d="M60.4,54.7c-0.2,0-0.3,0-0.5,0C60.1,54.7,60.3,54.7,60.4,54.7z" class="st7"/><linearGradient id="SVGID_8_" x1="58.849" x2="103.538" y1="50.542" y2="50.542" gradientTransform="matrix(1 0 0 -1 0 105.1953)" gradientUnits="userSpaceOnUse"><stop offset="0" style="stop-color:#023d4b"/><stop offset=".875" style="stop-color:#205027"/></linearGradient><path d="M60.4,54.7c-0.2,0-0.3,0-0.5,0C60.1,54.7,60.3,54.7,60.4,54.7z" class="st11"/><g><g><path d="M84.7,12.7c-0.5-0.9-1.2-1.6-1.9-2.1c-3.4-1.7-7.9-1-10.4,2.5l-18,31.1c-2.5,4.4,0.3,9.8,5.1,10.4l0,0 c0.2,0,0.3,0,0.5,0s0.3,0,0.5,0h8.7c-4.4,0-7.2-4.8-5-8.6l14.9-25.8c0.1-0.2,0.3-0.4,0.4-0.7c2.1-2.7,6.2-2.9,8.5-0.6 c0.2,0.1,0.3,0.3,0.5,0.4L84.7,12.7z" class="st4"/><polygon points="89 20.3 88.5 19.4 88.5 19.4" class="st4"/></g><g><linearGradient id="SVGID_9_" x1="64.082" x2="72.357" y1="45.6" y2="77.301" gradientTransform="matrix(1 0 0 -1 0 105.1953)" gradientUnits="userSpaceOnUse"><stop offset="0" style="stop-color:#075567"/><stop offset=".875" style="stop-color:#0c7290"/></linearGradient><path d="M84.7,12.7c-0.5-0.9-1.2-1.6-1.9-2.1c-3.4-1.7-7.9-1-10.4,2.5l-18,31.1c-2.5,4.4,0.3,9.8,5.1,10.4l0,0 c0.2,0,0.3,0,0.5,0s0.3,0,0.5,0h8.7c-4.4,0-7.2-4.8-5-8.6l14.9-25.8c0.1-0.2,0.3-0.4,0.4-0.7c2.1-2.7,6.2-2.9,8.5-0.6 c0.2,0.1,0.3,0.3,0.5,0.4L84.7,12.7z" class="st12"/><linearGradient id="SVGID_10_" x1="77.489" x2="85.765" y1="42.1" y2="73.8" gradientTransform="matrix(1 0 0 -1 0 105.1953)" gradientUnits="userSpaceOnUse"><stop offset="0" style="stop-color:#075567"/><stop offset=".875" style="stop-color:#0c7290"/></linearGradient><polygon points="89 20.3 88.5 19.4 88.5 19.4" class="st13"/></g><g class="st14"><linearGradient id="SVGID_11_" x1="64.082" x2="72.357" y1="45.6" y2="77.301" gradientTransform="matrix(1 0 0 -1 0 105.1953)" gradientUnits="userSpaceOnUse"><stop offset="0" style="stop-color:#075567"/><stop offset=".875" style="stop-color:#0c7290"/></linearGradient><path d="M84.7,12.7c-0.5-0.9-1.2-1.6-1.9-2.1c-3.4-1.7-7.9-1-10.4,2.5l-18,31.1c-2.5,4.4,0.3,9.8,5.1,10.4l0,0 c0.2,0,0.3,0,0.5,0s0.3,0,0.5,0h8.7c-4.4,0-7.2-4.8-5-8.6l14.9-25.8c0.1-0.2,0.3-0.4,0.4-0.7c2.1-2.7,6.2-2.9,8.5-0.6 c0.2,0.1,0.3,0.3,0.5,0.4L84.7,12.7z" class="st15"/><linearGradient id="SVGID_12_" x1="77.489" x2="85.765" y1="42.1" y2="73.8" gradientTransform="matrix(1 0 0 -1 0 105.1953)" gradientUnits="userSpaceOnUse"><stop offset="0" style="stop-color:#075567"/><stop offset=".875" style="stop-color:#0c7290"/></linearGradient><polygon points="89 20.3 88.5 19.4 88.5 19.4" class="st16"/></g></g><linearGradient id="SVGID_13_" x1="58.935" x2="103.624" y1="68.242" y2="68.242" gradientTransform="matrix(1 0 0 -1 0 105.1953)" gradientUnits="userSpaceOnUse"><stop offset="0" style="stop-color:#023d4b"/><stop offset=".875" style="stop-color:#205027"/></linearGradient><path d="M64.2,46l14.9-25.8c0.1-0.2,0.3-0.4,0.4-0.7c-0.3,0.3-0.5,0.6-0.7,0.9L60,48c-1.4,2.1-1.4,4.5-0.4,6.5l0,0 c0.2,0,0.3,0,0.5,0s0.3,0,0.5,0h8.7C64.8,54.6,62,49.8,64.2,46z" class="st17"/><path d="M88,19c0.4,0.4,0.7,0.8,1,1.2l-0.5-0.8C88.4,19.3,88.2,19.1,88,19z" class="st1"/><polygon points="90.6 23.1 90.6 23.1 89 20.3 89 20.3" class="st7"/><linearGradient id="SVGID_14_" x1="70.936" x2="97.833" y1="47.855" y2="98.63" gradientTransform="matrix(1 0 0 -1 0 105.1953)" gradientUnits="userSpaceOnUse"><stop offset="0" style="stop-color:#36b566"/><stop offset=".875" style="stop-color:#56b960"/></linearGradient><polygon points="90.6 23.1 90.6 23.1 89 20.3 89 20.3" class="st18"/><linearGradient id="SVGID_15_" x1="70.936" x2="97.833" y1="47.855" y2="98.63" gradientTransform="matrix(1 0 0 -1 0 105.1953)" gradientUnits="userSpaceOnUse"><stop offset="0" style="stop-color:#007a46"/><stop offset=".875" style="stop-color:#56b960"/></linearGradient><polygon points="90.6 23.1 90.6 23.1 89 20.3 89 20.3" class="st19"/><polygon points="90.6 23.1 89 20.3 89 20.3" class="st4"/><linearGradient id="SVGID_16_" x1="67.414" x2="95.158" y1="41.207" y2="93.58" gradientTransform="matrix(1 0 0 -1 0 105.1953)" gradientUnits="userSpaceOnUse"><stop offset="0" style="stop-color:#075567"/><stop offset=".875" style="stop-color:#0c7290"/></linearGradient><polygon points="90.6 23.1 89 20.3 89 20.3" class="st20"/><linearGradient id="SVGID_17_" x1="67.414" x2="95.158" y1="41.207" y2="93.58" gradientTransform="matrix(1 0 0 -1 0 105.1953)" gradientUnits="userSpaceOnUse"><stop offset="0" style="stop-color:#075567"/><stop offset=".875" style="stop-color:#0c7290"/></linearGradient><polygon points="90.6 23.1 89 20.3 89 20.3" class="st21"/><polygon points="90.6 23.1 89 20.3 89 20.3" class="st7"/><linearGradient id="SVGID_18_" x1="70.936" x2="97.834" y1="47.855" y2="98.63" gradientTransform="matrix(1 0 0 -1 0 105.1953)" gradientUnits="userSpaceOnUse"><stop offset="0" style="stop-color:#36b566"/><stop offset=".875" style="stop-color:#56b960"/></linearGradient><polygon points="90.6 23.1 89 20.3 89 20.3" class="st22"/><linearGradient id="SVGID_19_" x1="70.936" x2="97.834" y1="47.855" y2="98.63" gradientTransform="matrix(1 0 0 -1 0 105.1953)" gradientUnits="userSpaceOnUse"><stop offset="0" style="stop-color:#007a46"/><stop offset=".875" style="stop-color:#56b960"/></linearGradient><polygon points="90.6 23.1 89 20.3 89 20.3" class="st23"/><path d="M79.5,19.6c2.3-2.4,6-2.5,8.5-0.6C85.6,16.7,81.6,16.9,79.5,19.6z" class="st1"/><linearGradient id="SVGID_20_" x1="63.656" x2="87.206" y1="47.933" y2="92.389" gradientTransform="matrix(1 0 0 -1 0 105.1953)" gradientUnits="userSpaceOnUse"><stop offset="0" style="stop-color:#04715f"/><stop offset=".875" style="stop-color:#059884"/></linearGradient><path d="M79.5,19.6c2.3-2.4,6-2.5,8.5-0.6C85.6,16.7,81.6,16.9,79.5,19.6z" class="st24"/><polygon points="89 20.3 89 20.3 90.6 23.1 90.6 23.1" class="st1"/><linearGradient id="SVGID_21_" x1="69.373" x2="92.923" y1="44.905" y2="89.361" gradientTransform="matrix(1 0 0 -1 0 105.1953)" gradientUnits="userSpaceOnUse"><stop offset="0" style="stop-color:#04715f"/><stop offset=".875" style="stop-color:#059884"/></linearGradient><polygon points="89 20.3 89 20.3 90.6 23.1 90.6 23.1" class="st25"/><linearGradient id="SVGID_22_" x1="69.373" x2="92.923" y1="44.905" y2="89.361" gradientTransform="matrix(1 0 0 -1 0 105.1953)" gradientUnits="userSpaceOnUse"><stop offset="0" style="stop-color:#04715f"/><stop offset=".875" style="stop-color:#059884"/></linearGradient><polygon points="89 20.3 89 20.3 90.6 23.1 90.6 23.1" class="st26"/><linearGradient id="SVGID_23_" x1="70.936" x2="97.834" y1="47.855" y2="98.63" gradientTransform="matrix(1 0 0 -1 0 105.1953)" gradientUnits="userSpaceOnUse"><stop offset="0" style="stop-color:#36b566"/><stop offset=".875" style="stop-color:#56b960"/></linearGradient><polygon points="89 20.3 89 20.3 90.6 23.1 90.6 23.1" class="st27"/><linearGradient id="SVGID_24_" x1="70.936" x2="97.834" y1="47.855" y2="98.63" gradientTransform="matrix(1 0 0 -1 0 105.1953)" gradientUnits="userSpaceOnUse"><stop offset="0" style="stop-color:#007a46"/><stop offset=".875" style="stop-color:#56b960"/></linearGradient><polygon points="89 20.3 89 20.3 90.6 23.1 90.6 23.1" class="st28"/><path d="M70.6,50.3l13.9-19.8l1.4-2.4c1.4-2.4,4.6-2.9,6.6-1.3L90.7,23l-1.6-2.8c-0.3-0.5-0.6-0.9-1-1.2 c-2.5-1.9-6.2-1.8-8.5,0.6c-0.2,0.2-0.3,0.4-0.4,0.7L64.1,46.1c-2.2,3.8,0.6,8.6,5,8.6h0.7C69.5,53.3,69.6,51.7,70.6,50.3z" class="st1"/><linearGradient id="SVGID_25_" x1="58.849" x2="103.538" y1="69.054" y2="69.054" gradientTransform="matrix(1 0 0 -1 0 105.1953)" gradientUnits="userSpaceOnUse"><stop offset="0" style="stop-color:#023d4b"/><stop offset=".875" style="stop-color:#205027"/></linearGradient><path d="M70.6,50.3l13.9-19.8l1.4-2.4c1.4-2.4,4.6-2.9,6.6-1.3L90.7,23l-1.6-2.8c-0.3-0.5-0.6-0.9-1-1.2 c-2.5-1.9-6.2-1.8-8.5,0.6c-0.2,0.2-0.3,0.4-0.4,0.7L64.1,46.1c-2.2,3.8,0.6,8.6,5,8.6h0.7C69.5,53.3,69.6,51.7,70.6,50.3z" class="st29"/><path d="M70.6,50.3l13.9-19.8l1.4-2.4c1.4-2.4,4.6-2.9,6.6-1.3L90.7,23l-1.6-2.8c-0.3-0.5-0.6-0.9-1-1.2 c-2.5-1.9-6.2-1.8-8.5,0.6c-0.2,0.2-0.3,0.4-0.4,0.7L64.1,46.1c-2.2,3.8,0.6,8.6,5,8.6h0.7C69.5,53.3,69.6,51.7,70.6,50.3z" class="st1"/><linearGradient id="SVGID_26_" x1="68.615" x2="89.795" y1="49.671" y2="91.331" gradientTransform="matrix(1 0 0 -1 0 105.1953)" gradientUnits="userSpaceOnUse"><stop offset="0" style="stop-color:#04715f"/><stop offset=".647" style="stop-color:#059884"/></linearGradient><path d="M70.6,50.3l13.9-19.8l1.4-2.4c1.4-2.4,4.6-2.9,6.6-1.3L90.7,23l-1.6-2.8c-0.3-0.5-0.6-0.9-1-1.2 c-2.5-1.9-6.2-1.8-8.5,0.6c-0.2,0.2-0.3,0.4-0.4,0.7L64.1,46.1c-2.2,3.8,0.6,8.6,5,8.6h0.7C69.5,53.3,69.6,51.7,70.6,50.3z" class="st30"/><linearGradient id="SVGID_27_" x1="63.407" x2="92.503" y1="69.136" y2="69.136" gradientTransform="matrix(1 0 0 -1 0 105.1953)" gradientUnits="userSpaceOnUse"><stop offset="0" style="stop-color:#04715f"/><stop offset=".875" style="stop-color:#059884"/></linearGradient><path d="M90.6,23.1L89,20.3c-0.3-0.5-0.6-0.9-1-1.2c-2.4-2.3-6.4-2.1-8.5,0.6c-0.2,0.2-0.3,0.4-0.4,0.7l-15,25.7 c-2.2,3.8,0.6,8.6,5,8.6h0.7c-0.4-1.4-0.2-3,0.8-4.4l13.9-19.8l1.4-2.4c1.4-2.4,4.6-2.9,6.6-1.3L90.6,23.1z" class="st31"/><path d="M74.4,48l10.1-17.5L70.6,50.3c-1,1.4-1.2,3-0.8,4.4h8.4C74.8,54.7,72.7,51,74.4,48z" class="st1"/><linearGradient id="SVGID_28_" x1="70.066" x2="93.617" y1="44.538" y2="88.994" gradientTransform="matrix(1 0 0 -1 0 105.1953)" gradientUnits="userSpaceOnUse"><stop offset="0" style="stop-color:#04715f"/><stop offset=".875" style="stop-color:#059884"/></linearGradient><path d="M74.4,48l10.1-17.5L70.6,50.3c-1,1.4-1.2,3-0.8,4.4h8.4C74.8,54.7,72.7,51,74.4,48z" class="st32"/><linearGradient id="SVGID_29_" x1="70.066" x2="93.617" y1="44.538" y2="88.994" gradientTransform="matrix(1 0 0 -1 0 105.1953)" gradientUnits="userSpaceOnUse"><stop offset="0" style="stop-color:#04715f"/><stop offset=".875" style="stop-color:#059884"/></linearGradient><path d="M74.4,48l10.1-17.5L70.6,50.3c-1,1.4-1.2,3-0.8,4.4h8.4C74.8,54.7,72.7,51,74.4,48z" class="st33"/><linearGradient id="SVGID_30_" x1="58.849" x2="103.529" y1="62.642" y2="62.642" gradientTransform="matrix(1 0 0 -1 0 105.1953)" gradientUnits="userSpaceOnUse"><stop offset="0" style="stop-color:#023d4b"/><stop offset=".875" style="stop-color:#205027"/></linearGradient><path d="M74.4,48l10.1-17.5L70.6,50.3c-1,1.4-1.2,3-0.8,4.4h8.4C74.8,54.7,72.7,51,74.4,48z" class="st34"/><linearGradient id="SVGID_31_" x1="71.629" x2="98.527" y1="47.487" y2="98.263" gradientTransform="matrix(1 0 0 -1 0 105.1953)" gradientUnits="userSpaceOnUse"><stop offset="0" style="stop-color:#36b566"/><stop offset=".875" style="stop-color:#56b960"/></linearGradient><path d="M74.4,48l10.1-17.5L70.6,50.3c-1,1.4-1.2,3-0.8,4.4h8.4C74.8,54.7,72.7,51,74.4,48z" class="st35"/><linearGradient id="SVGID_32_" x1="90.771" x2="77.881" y1="80.217" y2="58.546" gradientTransform="matrix(1 0 0 -1 0 105.1953)" gradientUnits="userSpaceOnUse"><stop offset=".125" style="stop-color:#205027"/><stop offset="1" style="stop-color:#083d38"/></linearGradient><path d="M74.4,48l10.1-17.5L70.6,50.3c-1,1.4-1.2,3-0.8,4.4h8.4C74.8,54.7,72.7,51,74.4,48z" class="st36"/><linearGradient id="SVGID_33_" x1="71.629" x2="98.527" y1="47.487" y2="98.263" gradientTransform="matrix(1 0 0 -1 0 105.1953)" gradientUnits="userSpaceOnUse"><stop offset="0" style="stop-color:#007a46"/><stop offset=".875" style="stop-color:#56b960"/></linearGradient><path d="M74.4,48l10.1-17.5L70.6,50.3c-1,1.4-1.2,3-0.8,4.4h8.4C74.8,54.7,72.7,51,74.4,48z" class="st37"/><path d="M105,47.9l-1.2-2l-1.1-1.9l0,0l-5.6-9.7l4.5,7.8l0,0l-8.4-14.6c-1.7-3-6.1-3-7.9,0L73.5,47.9 c-1.7,3,0.4,6.8,3.9,6.8h16.8h2.2h2.2h2.3C104.5,54.7,106.7,50.9,105,47.9z" class="st38"/><linearGradient id="SVGID_34_" x1="75.436" x2="108.195" y1="38.404" y2="83.041" gradientTransform="matrix(1 0 0 -1 0 105.1953)" gradientUnits="userSpaceOnUse"><stop offset="0" style="stop-color:#4bb649"/><stop offset=".875" style="stop-color:#afd136"/></linearGradient><path d="M105,47.9l-1.2-2l-1.1-1.9l0,0l-5.6-9.7l4.5,7.8l0,0l-8.4-14.6c-1.7-3-6.1-3-7.9,0L73.5,47.9 c-1.7,3,0.4,6.8,3.9,6.8h16.8h2.2h2.2h2.3C104.5,54.7,106.7,50.9,105,47.9z" class="st39"/><linearGradient id="SVGID_35_" x1="76.067" x2="106.825" y1="38.27" y2="81.781" gradientTransform="matrix(1 0 0 -1 0 105.1953)" gradientUnits="userSpaceOnUse"><stop offset=".125" style="stop-color:#fff;stop-opacity:0"/><stop offset=".891" style="stop-color:#fff"/></linearGradient><path d="M105,47.9l-1.2-2l-1.1-1.9l0,0l-5.6-9.7l4.5,7.8l0,0l-8.4-14.6c-1.7-3-6.1-3-7.9,0L73.5,47.9 c-1.7,3,0.4,6.8,3.9,6.8h16.8h2.2h2.2h2.3C104.5,54.7,106.7,50.9,105,47.9z" class="st40"/><linearGradient id="SVGID_36_" x1="76.067" x2="106.825" y1="38.27" y2="81.781" gradientTransform="matrix(1 0 0 -1 0 105.1953)" gradientUnits="userSpaceOnUse"><stop offset=".125" style="stop-color:#fff;stop-opacity:0"/><stop offset=".891" style="stop-color:#fff"/></linearGradient><path d="M105,47.9l-1.2-2l-1.1-1.9l0,0l-5.6-9.7l4.5,7.8l0,0l-8.4-14.6c-1.7-3-6.1-3-7.9,0L73.5,47.9 c-1.7,3,0.4,6.8,3.9,6.8h16.8h2.2h2.2h2.3C104.5,54.7,106.7,50.9,105,47.9z" class="st41"/><linearGradient id="SVGID_37_" x1="86.797" x2="119.473" y1="54.271" y2="97.282" gradientTransform="matrix(1 0 0 -1 0 105.1953)" gradientUnits="userSpaceOnUse"><stop offset="0" style="stop-color:#007a46"/><stop offset=".875" style="stop-color:#56b960"/></linearGradient><path d="M105,47.9l-1.2-2l-1.1-1.9l0,0l-5.6-9.7l4.5,7.8l0,0l-8.4-14.6c-1.7-3-6.1-3-7.9,0L73.5,47.9 c-1.7,3,0.4,6.8,3.9,6.8h16.8h2.2h2.2h2.3C104.5,54.7,106.7,50.9,105,47.9z" class="st42"/></g></svg>